HIERARCHY
ROOT Junyuan_V1:Solving:Hips
{
	OFFSET 0.000000 0.000000 0.000000
	CHANNELS 6 Xposition Yposition Zposition Xrotation Yrotation Zrotation
	JOINT Junyuan_V1:Solving:Spine
	{
		OFFSET 0.000000 -12.985630 2.462989
		CHANNELS 6 Xposition Yposition Zposition Xrotation Yrotation Zrotation
		JOINT Junyuan_V1:Solving:Spine1
		{
			OFFSET 0.000000 -8.692390 1.532706
			CHANNELS 6 Xposition Yposition Zposition Xrotation Yrotation Zrotation
			JOINT Junyuan_V1:Solving:Spine2
			{
				OFFSET 0.000000 -8.792902 0.769282
				CHANNELS 6 Xposition Yposition Zposition Xrotation Yrotation Zrotation
				JOINT Junyuan_V1:Solving:Spine3
				{
					OFFSET 0.000000 -8.826483 0.000000
					CHANNELS 6 Xposition Yposition Zposition Xrotation Yrotation Zrotation
					JOINT Junyuan_V1:Solving:Neck
					{
						OFFSET 0.000000 -11.348343 -1.134832
						CHANNELS 6 Xposition Yposition Zposition Xrotation Yrotation Zrotation
						JOINT Junyuan_V1:Solving:Neck1
						{
							OFFSET 0.000000 -7.624485 -0.667056
							CHANNELS 6 Xposition Yposition Zposition Xrotation Yrotation Zrotation
							JOINT Junyuan_V1:Solving:Head
							{
								OFFSET 0.000000 -7.537346 -1.329035
								CHANNELS 6 Xposition Yposition Zposition Xrotation Yrotation Zrotation
								JOINT Junyuan_V1:Solving:HeadEnd
								{
									OFFSET 0.000000 -9.728073 0.000003
									CHANNELS 6 Xposition Yposition Zposition Xrotation Yrotation Zrotation
									End Site
									{
										OFFSET 0.000000 -9.728081 0.000002
									}
								}
							}
						}
					}
					JOINT Junyuan_V1:Solving:RightShoulder
					{
						OFFSET 0.000000 -8.105961 -5.517343
						CHANNELS 6 Xposition Yposition Zposition Xrotation Yrotation Zrotation
						JOINT Junyuan_V1:Solving:RightArm
						{
							OFFSET -18.898018 -0.000008 0.000000
							CHANNELS 6 Xposition Yposition Zposition Xrotation Yrotation Zrotation
							JOINT Junyuan_V1:Solving:RightForeArm
							{
								OFFSET -28.740982 -0.000008 0.000000
								CHANNELS 6 Xposition Yposition Zposition Xrotation Yrotation Zrotation
								JOINT Junyuan_V1:Solving:RightHand
								{
									OFFSET -20.953522 -0.000008 0.000000
									CHANNELS 6 Xposition Yposition Zposition Xrotation Yrotation Zrotation
									JOINT Junyuan_V1:Solving:RightHandThumb1
									{
										OFFSET -4.628059 2.916191 -3.441377
										CHANNELS 6 Xposition Yposition Zposition Xrotation Yrotation Zrotation
										End Site
										{
											OFFSET -6.617699 -0.000004 -6.678891
										}
									}
									JOINT Junyuan_V1:Solving:RightHandMiddle1
									{
										OFFSET -12.341492 -0.000004 0.079112
										CHANNELS 6 Xposition Yposition Zposition Xrotation Yrotation Zrotation
										End Site
										{
											OFFSET -9.402214 -0.000004 0.000000
										}
									}
								}
							}
						}
					}
					JOINT Junyuan_V1:Solving:LeftShoulder
					{
						OFFSET 0.000000 -8.105961 -5.517343
						CHANNELS 6 Xposition Yposition Zposition Xrotation Yrotation Zrotation
						JOINT Junyuan_V1:Solving:LeftArm
						{
							OFFSET 18.898018 -0.000008 0.000000
							CHANNELS 6 Xposition Yposition Zposition Xrotation Yrotation Zrotation
							JOINT Junyuan_V1:Solving:LeftForeArm
							{
								OFFSET 28.740982 -0.000008 0.000000
								CHANNELS 6 Xposition Yposition Zposition Xrotation Yrotation Zrotation
								JOINT Junyuan_V1:Solving:LeftHand
								{
									OFFSET 20.953522 -0.000008 0.000000
									CHANNELS 6 Xposition Yposition Zposition Xrotation Yrotation Zrotation
									JOINT Junyuan_V1:Solving:LeftHandThumb1
									{
										OFFSET 4.628059 2.916191 -3.441377
										CHANNELS 6 Xposition Yposition Zposition Xrotation Yrotation Zrotation
										End Site
										{
											OFFSET 6.617699 -0.000004 -6.678891
										}
									}
									JOINT Junyuan_V1:Solving:LeftHandMiddle1
									{
										OFFSET 12.341492 -0.000004 0.079112
										CHANNELS 6 Xposition Yposition Zposition Xrotation Yrotation Zrotation
										End Site
										{
											OFFSET 9.402214 -0.000004 0.000000
										}
									}
								}
							}
						}
					}
				}
			}
		}
	}
	JOINT Junyuan_V1:Solving:RightUpLeg
	{
		OFFSET -11.141669 0.000000 0.000000
		CHANNELS 6 Xposition Yposition Zposition Xrotation Yrotation Zrotation
		JOINT Junyuan_V1:Solving:RightLeg
		{
			OFFSET 0.000000 42.399242 -0.000006
			CHANNELS 6 Xposition Yposition Zposition Xrotation Yrotation Zrotation
			JOINT Junyuan_V1:Solving:RightFoot
			{
				OFFSET 0.000000 39.245022 -0.000006
				CHANNELS 6 Xposition Yposition Zposition Xrotation Yrotation Zrotation
				JOINT Junyuan_V1:Solving:RightForeFoot
				{
					OFFSET 0.000000 3.261009 -0.000000
					CHANNELS 6 Xposition Yposition Zposition Xrotation Yrotation Zrotation
					JOINT Junyuan_V1:Solving:RightToeBase
					{
						OFFSET 0.000000 0.000000 -12.771147
						CHANNELS 6 Xposition Yposition Zposition Xrotation Yrotation Zrotation
						JOINT Junyuan_V1:Solving:RightToeBaseEnd
						{
							OFFSET 0.000000 0.000000 -4.049008
							CHANNELS 6 Xposition Yposition Zposition Xrotation Yrotation Zrotation
							End Site
							{
								OFFSET 0.000000 -4.049011 0.000000
							}
						}
					}
				}
			}
		}
	}
	JOINT Junyuan_V1:Solving:LeftUpLeg
	{
		OFFSET 11.141669 0.000000 0.000000
		CHANNELS 6 Xposition Yposition Zposition Xrotation Yrotation Zrotation
		JOINT Junyuan_V1:Solving:LeftLeg
		{
			OFFSET 0.000000 42.399242 -0.000006
			CHANNELS 6 Xposition Yposition Zposition Xrotation Yrotation Zrotation
			JOINT Junyuan_V1:Solving:LeftFoot
			{
				OFFSET 0.000000 39.245022 -0.000006
				CHANNELS 6 Xposition Yposition Zposition Xrotation Yrotation Zrotation
				JOINT Junyuan_V1:Solving:LeftForeFoot
				{
					OFFSET 0.000000 3.261009 -0.000000
					CHANNELS 6 Xposition Yposition Zposition Xrotation Yrotation Zrotation
					JOINT Junyuan_V1:Solving:LeftToeBase
					{
						OFFSET 0.000000 0.000000 -12.771147
						CHANNELS 6 Xposition Yposition Zposition Xrotation Yrotation Zrotation
						JOINT Junyuan_V1:Solving:LeftToeBaseEnd
						{
							OFFSET 0.000000 0.000000 -2.960146
							CHANNELS 6 Xposition Yposition Zposition Xrotation Yrotation Zrotation
							End Site
							{
								OFFSET 0.000000 -2.960144 0.000002
							}
						}
					}
				}
			}
		}
	}
}
MOTION
Frames: 4
Frame Time: 0.041667
16.362299 31.996561 -90.195114 91.907346 174.387379 1.243988 0.000002 -12.985623 2.462990 8.322740 0.299570 0.185748 0.000001 -8.692401 1.532706 -0.830883 -0.083839 0.314964 -0.000000 -8.792894 0.769274 -4.385399 0.989241 -0.596403 0.000002 -8.826493 -0.000007 -1.054067 0.277510 -1.409886 0.000001 -11.348329 -1.134817 -1.890917 1.619102 3.650531 0.000001 -7.624461 -0.667054 4.161956 2.797087 -0.767359 0.000000 -7.537321 -1.329035 12.086715 0.281380 -1.368670 0.000005 -9.728065 -0.000000 -0.000001 -0.000000 0.000000 -0.000002 -8.105972 -5.517326 -0.000012 14.494587 11.081765 -18.898022 0.000005 -0.000001 1.610448 -30.974553 -88.202454 -28.740984 -0.000004 0.000007 -4.762293 -17.172007 -1.408987 -20.953508 -0.000002 -0.000010 -0.356187 -2.172125 -9.314908 -4.628053 2.916201 -3.441380 0.000004 0.000012 -0.000000 -12.341469 0.000004 0.079109 0.000002 -0.000000 0.000000 -0.000001 -8.105972 -5.517326 -0.000009 -9.068173 -11.115588 18.898022 0.000004 0.000008 -0.452224 41.045434 90.708437 28.740971 -0.000000 0.000004 -1.052657 17.107476 0.309685 20.953527 0.000002 -0.000000 0.120723 1.244147 -5.542560 4.628084 2.916206 -3.441371 0.000003 -0.000007 0.000002 12.341499 0.000003 0.079111 -0.000003 0.000002 0.000000 -11.141668 0.000007 0.000004 4.200253 5.355440 -2.251979 0.000001 42.399239 -0.000008 7.589190 -0.000000 -0.000001 -0.000003 39.245037 0.000002 -3.539297 -7.841651 -5.997304 -0.000002 3.261009 0.000006 0.000001 0.000000 -0.000001 -0.000003 -0.000004 -12.771152 7.442535 0.000004 0.000001 -0.000000 -0.000007 -4.049012 0.000001 0.000001 -0.000001 11.141670 0.000004 0.000000 1.748440 -6.895011 2.080613 0.000000 42.399239 -0.000020 6.314759 0.000001 -0.000001 -0.000003 39.245022 -0.000005 -1.605976 -1.898432 -20.888161 0.000001 3.260994 -0.000004 -0.000001 0.000000 -0.000001 -0.000002 0.000018 -12.771151 1.273915 -0.000002 0.000001 -0.000000 -0.000007 -2.960141 0.000001 0.000003 0.000003 
16.384693 32.026939 -90.198929 91.873817 174.355837 1.295718 -0.000003 -12.985641 2.462994 8.318104 0.303913 0.131268 -0.000003 -8.692387 1.532698 -0.835194 -0.085895 0.315597 0.000001 -8.792908 0.769291 -4.362675 0.971830 -0.592803 -0.000001 -8.826476 -0.000002 -1.051797 0.277399 -1.436819 -0.000000 -11.348322 -1.134829 -1.943216 1.561270 3.622180 -0.000000 -7.624448 -0.667049 4.214132 2.669553 -0.779649 -0.000000 -7.537360 -1.329037 12.184414 0.273538 -1.374192 -0.000001 -9.728088 -0.000001 -0.000003 -0.000000 0.000000 -0.000000 -8.105949 -5.517343 -0.000004 14.430258 11.106343 -18.898022 0.000012 -0.000001 1.815501 -30.940146 -87.882316 -28.740969 -0.000007 0.000003 -4.544060 -17.465960 -1.366457 -20.953520 0.000014 0.000002 -0.388102 -2.160258 -10.187211 -4.628076 2.916217 -3.441379 -0.000003 0.000007 -0.000001 -12.341460 0.000009 0.079108 -0.000001 -0.000005 0.000001 -0.000001 -8.105949 -5.517340 -0.000002 -8.962631 -11.083736 18.898024 0.000003 0.000005 -0.313243 40.619586 90.292403 28.740995 -0.000009 0.000006 -0.498886 17.201024 0.147535 20.953531 -0.000006 0.000005 0.091522 1.105780 -4.731758 4.628044 2.916200 -3.441376 0.000001 -0.000009 0.000009 12.341453 -0.000002 0.079109 0.000001 -0.000001 -0.000001 -11.141668 -0.000008 0.000003 4.182422 5.026837 -2.339604 0.000002 42.399246 -0.000002 7.498666 -0.000000 -0.000000 -0.000007 39.245018 -0.000013 -3.445778 -7.501768 -5.946883 -0.000001 3.261010 0.000006 0.000000 0.000001 -0.000002 -0.000001 -0.000005 -12.771149 7.468592 0.000001 -0.000001 0.000002 -0.000000 -4.049013 -0.000001 0.000001 -0.000001 11.141666 -0.000009 0.000006 1.611244 -7.361886 1.981521 -0.000001 42.399235 -0.000021 6.496079 0.000003 -0.000001 -0.000009 39.245003 -0.000000 -1.666773 -1.388519 -20.921175 0.000001 3.261009 0.000003 0.000000 0.000003 -0.000001 0.000003 -0.000004 -12.771148 1.338521 0.000000 0.000003 -0.000002 0.000000 -2.960147 -0.000002 -0.000001 -0.000001 
16.422653 32.028587 -90.217499 91.922858 174.278820 1.437992 0.000002 -12.985633 2.462986 8.376272 0.341133 -0.030320 -0.000002 -8.692416 1.532699 -0.801623 -0.087660 0.318615 -0.000001 -8.792899 0.769274 -4.344994 0.955372 -0.592744 -0.000000 -8.826477 -0.000008 -1.028800 0.279603 -1.452861 0.000003 -11.348327 -1.134820 -1.939769 1.563520 3.654243 -0.000002 -7.624469 -0.667055 4.276983 2.698662 -0.806690 0.000000 -7.537315 -1.329015 12.180924 0.277952 -1.389183 -0.000000 -9.728096 0.000006 -0.000005 -0.000000 0.000000 0.000001 -8.105972 -5.517335 -0.000003 14.384332 11.096680 -18.898003 -0.000041 0.000000 2.052935 -31.086752 -87.526566 -28.740990 -0.000004 0.000001 -4.504827 -17.831175 -1.382022 -20.953527 -0.000000 0.000001 -0.428248 -2.227065 -10.887573 -4.628062 2.916201 -3.441368 -0.000006 -0.000007 -0.000004 -12.341472 0.000006 0.079119 0.000003 -0.000001 -0.000004 0.000004 -8.105968 -5.517335 -0.000001 -8.977628 -11.009560 18.898022 0.000028 0.000005 -0.187367 40.560846 89.781491 28.740984 -0.000012 0.000003 -0.367807 17.339053 0.109617 20.953526 -0.000008 0.000004 0.062793 0.881863 -4.073171 4.628073 2.916207 -3.441364 -0.000003 0.000003 -0.000001 12.341484 -0.000004 0.079116 0.000000 -0.000001 0.000000 -11.141668 -0.000009 0.000002 3.973990 8.211903 -2.284453 0.000001 42.399235 -0.000011 8.319031 -0.000000 -0.000001 -0.000004 39.245026 0.000002 -3.463935 -10.696641 -5.499885 0.000003 3.261009 0.000003 0.000001 0.000002 0.000000 -0.000002 0.000011 -12.771149 7.018049 0.000002 -0.000000 -0.000002 -0.000000 -4.049004 -0.000001 -0.000002 -0.000000 11.141668 -0.000009 0.000001 1.512754 -8.032081 1.746959 0.000001 42.399231 -0.000008 6.778291 0.000001 -0.000001 -0.000006 39.245010 -0.000007 -1.806054 -0.637694 -20.927799 0.000001 3.261009 0.000012 -0.000000 0.000001 -0.000000 -0.000001 -0.000000 -12.771148 1.418175 -0.000001 0.000005 -0.000000 -0.000000 -2.960146 -0.000001 -0.000001 0.000002 
16.434298 32.058609 -90.219917 91.893167 174.254805 1.462441 -0.000003 -12.985645 2.462992 8.401776 0.344038 -0.066633 -0.000001 -8.692395 1.532700 -0.799572 -0.090380 0.325032 -0.000001 -8.792876 0.769287 -4.332675 0.939542 -0.586929 -0.000001 -8.826485 -0.000007 -1.002420 0.273261 -1.451539 0.000002 -11.348344 -1.134839 -1.914802 1.586957 3.650119 -0.000000 -7.624447 -0.667058 4.267001 2.737949 -0.812699 -0.000000 -7.537338 -1.329058 12.203614 0.280432 -1.408561 -0.000001 -9.728081 0.000000 -0.000001 0.000000 -0.000000 0.000002 -8.105949 -5.517346 -0.000004 14.418729 11.046821 -18.898022 0.000019 0.000002 2.598121 -32.496876 -86.921527 -28.740965 -0.000007 0.000005 -5.760429 -18.713424 -1.853751 -20.953531 0.000001 -0.000003 -0.380593 -2.018646 -10.679289 -4.628058 2.916198 -3.441365 0.000003 0.000007 0.000003 -12.341445 -0.000007 0.079116 0.000002 0.000001 0.000001 0.000003 -8.105953 -5.517346 -0.000001 -8.982084 -11.015831 18.898014 0.000011 0.000007 -0.104103 40.675590 89.343737 28.740997 -0.000015 -0.000005 -0.553156 17.526629 0.166588 20.953529 -0.000003 0.000001 0.034225 0.544883 -3.594154 4.628047 2.916208 -3.441371 -0.000005 -0.000002 0.000003 12.341437 -0.000002 0.079109 -0.000004 0.000002 -0.000001 -11.141669 -0.000001 0.000003 3.892636 8.524225 -2.290336 0.000003 42.399250 -0.000012 8.418322 0.000000 -0.000001 0.000000 39.245018 0.000009 -3.461764 -10.996882 -5.434808 0.000005 3.261009 -0.000000 0.000000 -0.000000 -0.000001 -0.000007 0.000020 -12.771154 7.017154 0.000001 0.000000 0.000001 0.000000 -4.049010 0.000002 -0.000000 -0.000000 11.141668 -0.000019 0.000006 1.395306 -8.320406 1.692190 0.000001 42.399220 -0.000016 6.917810 0.000001 -0.000001 -0.000007 39.245014 -0.000010 -1.846588 -0.328042 -20.946225 0.000003 3.261010 0.000013 0.000001 -0.000000 0.000005 -0.000003 0.000016 -12.771152 1.495528 0.000001 0.000003 -0.000000 0.000001 -2.960148 0.000000 0.000001 0.000004 
